<?xml version="1.0" encoding="iso-8859-1"?>
<!-- Generator: Adobe Illustrator 19.0.0, SVG Export Plug-In . SVG Version: 6.00 Build 0)  -->
<svg version="1.1" id="Layer_1" xmlns="http://www.w3.org/2000/svg" xmlns:xlink="http://www.w3.org/1999/xlink" x="0px" y="0px"
	 viewBox="0 0 511.997 511.997" style="enable-background:new 0 0 511.997 511.997;" xml:space="preserve">
<circle style="fill:#3A99D7;" cx="255.999" cy="255.996" r="255.996"/>
<path style="fill:#2682BF;" d="M505.702,312.627c-25.776,114.134-127.779,199.37-249.703,199.37c-2.007,0-4.002-0.029-5.999-0.075
	L119.049,380.97l81.755-78.921l-60.198-60.198l135.385-131.088l60.399,60.399l14.17-13.677l155.138,155.138L505.702,312.627z"/>
<path style="fill:#E84F4F;" d="M170,252.156h172.005c41.165,0,74.536,33.37,74.536,74.535l0,0c0,41.164-33.371,74.535-74.536,74.535
	H170c-41.165,0-74.536-33.37-74.536-74.535l0,0C95.464,285.526,128.835,252.156,170,252.156z"/>
<path style="fill:#C94545;" d="M390.284,270.023c16.044,13.699,26.261,34.048,26.261,56.67l0,0c0,40.996-33.54,74.536-74.536,74.536
	H169.997c-19.655,0-37.594-7.711-50.944-20.259L390.28,270.022h0.004V270.023z"/>
<rect x="178.601" y="271.505" style="fill:#F7F7F8;" width="154.804" height="102.843"/>
<path style="fill:#00CC96;" d="M274.64,382.855h20.424c1.579,0,2.867,1.288,2.867,2.867v5.913c0,1.575-1.288,2.867-2.867,2.867
	H274.64c-1.579,0-2.867-1.291-2.867-2.867v-5.913C271.773,384.142,273.061,382.855,274.64,382.855z M310.115,382.855h20.427
	c1.579,0,2.867,1.288,2.867,2.867v5.913c0,1.575-1.288,2.867-2.867,2.867h-20.427c-1.575,0-2.867-1.291-2.867-2.867v-5.913
	C307.249,384.142,308.54,382.855,310.115,382.855z"/>
<g>
	<path style="fill:#FBBE00;" d="M382.592,318.18h9.495c2.071,0,3.762,1.69,3.762,3.762v9.495c0,2.068-1.69,3.762-3.762,3.762h-9.495
		c-2.068,0-3.762-1.694-3.762-3.762v-9.495C378.829,319.87,380.523,318.18,382.592,318.18z"/>
	<path style="fill:#FBBE00;" d="M359.79,312.403v-9.495c0-2.071,1.694-3.762,3.762-3.762h9.495c2.071,0,3.762,1.69,3.762,3.762
		v9.495c0,2.068-1.69,3.762-3.762,3.762h-9.495C361.484,316.166,359.79,314.472,359.79,312.403z"/>
	<path style="fill:#FBBE00;" d="M359.79,350.476v-9.495c0-2.071,1.694-3.762,3.762-3.762h9.495c2.071,0,3.762,1.69,3.762,3.762
		v9.495c0,2.071-1.69,3.762-3.762,3.762h-9.495C361.484,354.238,359.79,352.548,359.79,350.476z"/>
	<path style="fill:#FBBE00;" d="M344.515,318.18h9.495c2.071,0,3.762,1.69,3.762,3.762v9.495c0,2.068-1.69,3.762-3.762,3.762h-9.495
		c-2.071,0-3.762-1.694-3.762-3.762v-9.495C340.753,319.87,342.444,318.18,344.515,318.18z"/>
</g>
<g>
	<path style="fill:#727271;" d="M383.623,322.974l7.434,3.718l-7.434,3.715V322.974z"/>
	<path style="fill:#727271;" d="M352.982,322.974l-7.434,3.718l7.434,3.715V322.974z"/>
	<path style="fill:#727271;" d="M364.584,342.013l3.715,7.434l3.718-7.434H364.584z"/>
	<path style="fill:#727271;" d="M364.584,311.372l3.715-7.434l3.718,7.434H364.584z"/>
</g>
<path style="fill:#E6E6E6;" d="M140.61,241.855l-0.079-35.595l29.545-3.021c1.956-7.315,4.862-14.433,8.707-21.151l-18.852-22.945
	l28.559-28.681l23.025,18.752c6.704-3.877,13.806-6.815,21.111-8.8l2.899-29.559L276,110.772l3.025,29.541
	c7.315,1.953,14.426,4.855,21.151,8.707l22.942-18.856l28.681,28.556l-18.752,23.025c3.88,6.704,6.815,13.806,8.797,21.115
	l29.559,2.892l0.083,36.116h-64.513c6.873-19.802,2.456-41.773-12.94-57.101c-45.524-45.316-107.769,5.254-90.099,57.101h-31.656
	l-31.663-0.011h-0.004V241.855z"/>
<path style="fill:#CCCCCC;" d="M255.758,110.808l20.237-0.04l3.025,29.541c7.315,1.953,14.426,4.855,21.151,8.707l22.942-18.856
	l28.681,28.556l-18.752,23.025c3.88,6.704,6.815,13.806,8.797,21.115l29.559,2.892l0.083,36.116h-64.513l0.27-0.776l0.029-0.075
	l0.255-0.78l0.043-0.129l0.28-0.918l0.262-0.921l0.158-0.564l0.097-0.356l0.234-0.928l-0.004-0.004l0.216-0.932l0.079-0.352
	l0.122-0.575l0.025-0.129l0.158-0.809l0.169-0.939c0.108-0.625,0.201-1.255,0.288-1.881l0.108-0.853l0.011-0.09l0.101-0.946
	l0.068-0.748l0.036-0.424l0.05-0.694l0.004-0.032l0.05-0.946l0.007-0.043l0.036-0.907l0.011-0.406l0.007-0.546v-0.14v-0.805
	l-0.011-0.95l-0.004-0.176l-0.025-0.773l-0.022-0.539l-0.022-0.406l-0.058-0.903l-0.004-0.05l-0.083-0.946l-0.025-0.309
	l-0.068-0.636l-0.075-0.672l-0.032-0.273l-0.133-0.943c-0.137-0.946-0.295-1.881-0.482-2.816l-0.194-0.932l-0.047-0.219
	l-0.162-0.708l-0.047-0.194l-0.421-1.658l-0.456-1.586l-0.298-0.946l-0.068-0.219l-0.309-0.91l-0.043-0.129l-0.284-0.776
	l-0.025-0.068l-0.255-0.676l-0.058-0.155l-0.323-0.809l-0.04-0.086l-0.374-0.889l-0.108-0.255l-0.28-0.629l-0.27-0.582l-0.14-0.295
	l-0.424-0.874l-0.014-0.036l-0.421-0.827l-0.194-0.37l-0.047-0.083l-0.528-0.975l-0.065-0.122l-0.093-0.165l-0.489-0.846
	l-0.097-0.162l-0.41-0.683l-0.137-0.208l-0.32-0.51l-0.068-0.108l-0.51-0.784l-0.029-0.043l-0.554-0.816l-0.187-0.27l-0.09-0.129
	l-0.643-0.889l-0.065-0.097l-0.173-0.23l-0.604-0.787l-0.288-0.367l-0.629-0.787l-0.011-0.011l-0.331-0.399l-0.557-0.661
	l-0.097-0.108l-0.669-0.755l-0.162-0.18l-0.043-0.043c-0.611-0.676-1.248-1.342-1.902-1.992
	c-10.591-10.544-24.424-15.846-38.273-15.925v-58.035v-0.004L255.758,110.808z"/>
<g>
	<path style="fill:#FBBE00;" d="M244.631,229.98c-9.732-4.334-16.551-14.055-16.63-25.398c-0.075-10.627,5.78-19.914,14.465-24.718
		l0.158,22.302l26.725-0.187l-0.165-22.299c8.761,4.679,14.742,13.882,14.825,24.51c0.072,11.347-6.6,21.165-16.274,25.629
		c0.097,0.604,0.162,1.241,0.162,1.848l0.068,20.492h-23.402l-0.068-20.327c0-0.625,0.04-1.245,0.137-1.848L244.631,229.98
		L244.631,229.98z"/>
	<path style="fill:#FBBE00;" d="M137.581,300.546h6.05c3.165,0,5.755,2.59,5.755,5.755v9.473h9.473c3.165,0,5.755,2.59,5.755,5.755
		v6.05c0,3.165-2.59,5.755-5.755,5.755h-9.473v9.477c0,3.165-2.59,5.755-5.755,5.755h-6.05c-3.165,0-5.755-2.59-5.755-5.755v-9.477
		h-9.477c-3.165,0-5.755-2.59-5.755-5.755v-6.05c0-3.165,2.59-5.755,5.755-5.755h9.477v-9.473
		C131.828,303.136,134.417,300.546,137.581,300.546z"/>
</g>
<g>
</g>
<g>
</g>
<g>
</g>
<g>
</g>
<g>
</g>
<g>
</g>
<g>
</g>
<g>
</g>
<g>
</g>
<g>
</g>
<g>
</g>
<g>
</g>
<g>
</g>
<g>
</g>
<g>
</g>
</svg>
